2<svg width="22" height="22" viewBox="0 0 22 22" fill="none" xmlns="http://www.w3.org/2000/svg">
<path d="M0.751465 15.75H13.561C13.6433 15.7501 13.7248 15.7339 13.8008 15.7024C13.8769 15.671 13.946 15.6248 14.0042 15.5667C14.0623 15.5085 14.1085 15.4394 14.1399 15.3633C14.1714 15.2873 14.1876 15.2058 14.1875 15.1235V13.2515C14.1876 13.1692 14.1714 13.0877 14.1399 13.0117C14.1085 12.9356 14.0623 12.8665 14.0042 12.8083C13.946 12.7502 13.8769 12.704 13.8008 12.6726C13.7248 12.6411 13.6433 12.6249 13.561 12.625H0.751465C0.669178 12.6249 0.587687 12.6411 0.511651 12.6726C0.435616 12.704 0.36653 12.7502 0.308344 12.8083C0.250159 12.8665 0.204016 12.9356 0.172556 13.0117C0.141096 13.0877 0.124936 13.1692 0.125 13.2515V15.1235C0.124936 15.2058 0.141096 15.2873 0.172556 15.3633C0.204016 15.4394 0.250159 15.5085 0.308344 15.5667C0.36653 15.6248 0.435616 15.671 0.511651 15.7024C0.587687 15.7339 0.669178 15.7501 0.751465 15.75ZM0.751465 3.25H13.561C13.6433 3.25006 13.7248 3.2339 13.8008 3.20244C13.8769 3.17098 13.946 3.12484 14.0042 3.06666C14.0623 3.00847 14.1085 2.93938 14.1399 2.86335C14.1714 2.78731 14.1876 2.70582 14.1875 2.62354V0.751465C14.1876 0.669179 14.1714 0.587687 14.1399 0.511651C14.1085 0.435616 14.0623 0.36653 14.0042 0.308344C13.946 0.250159 13.8769 0.204016 13.8008 0.172556C13.7248 0.141096 13.6433 0.124936 13.561 0.125H0.751465C0.669178 0.124936 0.587687 0.141096 0.511651 0.172556C0.435616 0.204016 0.36653 0.250159 0.308344 0.308344C0.250159 0.36653 0.204016 0.435616 0.172556 0.511651C0.141096 0.587687 0.124936 0.669179 0.125 0.751465V2.62354C0.124936 2.70582 0.141096 2.78731 0.172556 2.86335C0.204016 2.93938 0.250159 3.00847 0.308344 3.06666C0.36653 3.12484 0.435616 3.17098 0.511651 3.20244C0.587687 3.2339 0.669178 3.25006 0.751465 3.25ZM21.2188 6.375H0.90625C0.69905 6.375 0.500336 6.45731 0.353823 6.60382C0.20731 6.75034 0.125 6.94905 0.125 7.15625V8.71875C0.125 8.92595 0.20731 9.12466 0.353823 9.27118C0.500336 9.41769 0.69905 9.5 0.90625 9.5H21.2188C21.426 9.5 21.6247 9.41769 21.7712 9.27118C21.9177 9.12466 22 8.92595 22 8.71875V7.15625C22 6.94905 21.9177 6.75034 21.7712 6.60382C21.6247 6.45731 21.426 6.375 21.2188 6.375ZM21.2188 18.875H0.90625C0.69905 18.875 0.500336 18.9573 0.353823 19.1038C0.20731 19.2503 0.125 19.449 0.125 19.6562V21.2188C0.125 21.426 0.20731 21.6247 0.353823 21.7712C0.500336 21.9177 0.69905 22 0.90625 22H21.2188C21.426 22 21.6247 21.9177 21.7712 21.7712C21.9177 21.6247 22 21.426 22 21.2188V19.6562C22 19.449 21.9177 19.2503 21.7712 19.1038C21.6247 18.9573 21.426 18.875 21.2188 18.875Z" fill="#213F7D"/>
</svg>
