<svg width="18" height="18" viewBox="0 0 18 18" fill="none" xmlns="http://www.w3.org/2000/svg">
<g clip-path="url(#clip0_5530_2742)">
<path d="M16.6002 2.25C16.6002 1.52193 16.0002 0.934328 15.1059 0.534069C14.2049 0.130866 12.9713 -0.1 11.6248 -0.1C10.2786 -0.1 9.04511 0.130867 8.14429 0.534071C7.25004 0.93433 6.65 1.52193 6.65 2.25C6.65 2.97807 7.25004 3.56567 8.14429 3.96593C9.04511 4.36913 10.2786 4.6 11.6248 4.6C12.9713 4.6 14.2049 4.36913 15.1059 3.96593C16.0002 3.56567 16.6002 2.97807 16.6002 2.25ZM7.60024 2.25C7.60024 2.10802 7.68874 1.94724 7.88614 1.78025C8.08165 1.61485 8.37054 1.45542 8.7363 1.31648C9.46698 1.03894 10.4858 0.85024 11.6248 0.85024C12.7637 0.85024 13.7827 1.03894 14.5136 1.31649C14.8794 1.45543 15.1684 1.61487 15.364 1.78027C15.5615 1.94727 15.65 2.10804 15.65 2.25C15.65 2.39196 15.5615 2.55273 15.364 2.71974C15.1684 2.88513 14.8794 3.04457 14.5136 3.18351C13.7827 3.46106 12.7637 3.64976 11.6248 3.64976C10.4858 3.64976 9.46698 3.46106 8.7363 3.18351C8.37054 3.04457 8.08165 2.88514 7.88614 2.71975C7.68874 2.55275 7.60024 2.39198 7.60024 2.25Z" fill="#FF3366" stroke="#FF3366" stroke-width="0.2"/>
<path d="M16.6002 2.25V2.15H16.5002H15.75H15.65V2.25V4.5C15.65 4.64197 15.5615 4.80274 15.364 4.96974C15.1684 5.13514 14.8794 5.29458 14.5136 5.43352C13.7827 5.71106 12.7637 5.89976 11.6248 5.89976C10.4858 5.89976 9.46698 5.71106 8.7363 5.43351C8.37054 5.29457 8.08165 5.13514 7.88614 4.96975C7.68874 4.80275 7.60024 4.64198 7.60024 4.5V2.25V2.15H7.50024H6.75H6.65V2.25V4.5C6.65 5.22807 7.25004 5.81567 8.14429 6.21593C9.04511 6.61913 10.2786 6.85 11.6248 6.85C12.9713 6.85 14.2049 6.61913 15.1059 6.21593C16.0002 5.81567 16.6002 5.22807 16.6002 4.5V2.25Z" fill="#FF3366" stroke="#FF3366" stroke-width="0.2"/>
<path d="M6.65 6.75702V6.83833L6.7296 6.85491L6.72961 6.85491L6.73796 6.85665L6.74649 6.85695C7.00336 6.866 7.2532 6.8848 7.49323 6.91193L7.62051 6.92632L7.60358 6.79935C7.60133 6.78244 7.60024 6.76647 7.60024 6.74998V4.49998V4.39998H7.50024H6.75H6.65V4.49998V6.74998V6.75702ZM10.5015 8.94541L10.5045 9.04459C10.8651 9.08079 11.2404 9.09994 11.6248 9.09994C12.9713 9.09994 14.2049 8.86907 15.1059 8.46587C16.0002 8.06561 16.6002 7.47801 16.6002 6.74994V4.49994V4.39994H16.5002H15.75H15.65V4.49994V6.74994C15.65 6.89191 15.5615 7.05268 15.364 7.21968C15.1684 7.38508 14.8794 7.54452 14.5136 7.68345C13.7827 7.961 12.7637 8.1497 11.6248 8.1497C11.2361 8.1497 10.8616 8.12811 10.5068 8.08776L10.3795 8.07328L10.3964 8.20034C10.3987 8.21716 10.3998 8.23384 10.3998 8.2497C10.3998 8.31385 10.4054 8.56946 10.4146 8.9475L10.5015 8.94541Z" fill="#FF3366" stroke="#FF3366" stroke-width="0.2"/>
<path d="M10.4708 11.1525L10.3094 11.2763L10.5626 11.3004C10.9055 11.3331 11.2609 11.3501 11.6247 11.3501C12.9712 11.3501 14.2049 11.1192 15.1058 10.716C16.0001 10.3158 16.6002 9.72816 16.6002 9.00009V6.75009V6.65009H16.5002H15.7499H15.6499V6.75009V9.00009C15.6499 9.14206 15.5614 9.30283 15.3639 9.46984C15.1684 9.63523 14.8794 9.79467 14.5135 9.93361C13.7827 10.2112 12.7637 10.3999 11.6247 10.3999C11.257 10.3999 10.9005 10.3803 10.5631 10.3442L10.4495 10.332L10.4525 10.4462C10.4544 10.5218 10.4564 10.5983 10.4584 10.6757C10.4624 10.8316 10.4665 10.9909 10.4708 11.1525ZM7.48926 6.91133L7.60024 6.92359V6.81194V6.75006V6.65006H7.50024H6.75H6.65V6.75006V6.75709V6.85361L6.74646 6.85703C7.0019 6.86608 7.24972 6.88487 7.48926 6.91133Z" fill="#FF3366" stroke="#FF3366" stroke-width="0.2"/>
<path d="M11.35 9C11.35 8.27193 10.75 7.68433 9.85571 7.28407C8.95489 6.88087 7.72142 6.65 6.37524 6.65C5.02869 6.65 3.79505 6.88087 2.89414 7.28407C1.9998 7.68433 1.39976 8.27193 1.39976 9C1.39976 9.72807 1.9998 10.3157 2.89414 10.7159C3.79505 11.1191 5.02869 11.35 6.37524 11.35C7.72142 11.35 8.95489 11.1191 9.85571 10.7159C10.75 10.3157 11.35 9.72807 11.35 9ZM2.35 9C2.35 8.85803 2.43852 8.69726 2.636 8.53026C2.83158 8.36486 3.12055 8.20542 3.48641 8.06648C4.21728 7.78894 5.23625 7.60024 6.37524 7.60024C7.51422 7.60024 8.53301 7.78894 9.26369 8.06649C9.62946 8.20543 9.91834 8.36486 10.1139 8.53025C10.3113 8.69725 10.3998 8.85802 10.3998 9C10.3998 9.14198 10.3113 9.30275 10.1139 9.46975C9.91834 9.63514 9.62946 9.79457 9.26369 9.93351C8.53301 10.2111 7.51422 10.3998 6.37524 10.3998C5.23625 10.3998 4.21728 10.2111 3.48641 9.93351C3.12055 9.79457 2.83158 9.63513 2.636 9.46974C2.43852 9.30273 2.35 9.14196 2.35 9Z" fill="#FF3366" stroke="#FF3366" stroke-width="0.2"/>
<path d="M11.35 9V8.9H11.25H10.4998H10.3998V9V11.25C10.3998 11.392 10.3113 11.5528 10.1139 11.7198C9.91834 11.8851 9.62946 12.0446 9.26369 12.1835C8.53301 12.4611 7.51422 12.6498 6.37524 12.6498C5.23625 12.6498 4.21728 12.4611 3.48641 12.1835C3.12055 12.0446 2.83158 11.8851 2.636 11.7197C2.43852 11.5527 2.35 11.392 2.35 11.25V9V8.9H2.25H1.49976H1.39976V9V11.25C1.39976 11.9781 1.9998 12.5657 2.89414 12.9659C3.79505 13.3691 5.02869 13.6 6.37524 13.6C7.72142 13.6 8.95489 13.3691 9.85571 12.9659C10.75 12.5657 11.35 11.9781 11.35 11.25V9Z" fill="#FF3366" stroke="#FF3366" stroke-width="0.2"/>
<path d="M11.35 11.25V11.15H11.25H10.4998H10.3998V11.25V13.5C10.3998 13.642 10.3113 13.8028 10.1139 13.9698C9.91834 14.1351 9.62946 14.2946 9.26369 14.4335C8.53301 14.7111 7.51422 14.8998 6.37524 14.8998C5.23625 14.8998 4.21728 14.7111 3.48641 14.4335C3.12055 14.2946 2.83158 14.1351 2.636 13.9697C2.43852 13.8027 2.35 13.642 2.35 13.5V11.25V11.15H2.25H1.49976H1.39976V11.25V13.5C1.39976 14.2281 1.9998 14.8157 2.89414 15.2159C3.79505 15.6191 5.02869 15.85 6.37524 15.85C7.72142 15.85 8.95489 15.6191 9.85571 15.2159C10.75 14.8157 11.35 14.2281 11.35 13.5V11.25Z" fill="#FF3366" stroke="#FF3366" stroke-width="0.2"/>
<path d="M11.35 13.5V13.4H11.25H10.4998H10.3998V13.5V15.75C10.3998 15.892 10.3113 16.0528 10.1139 16.2198C9.91834 16.3851 9.62946 16.5446 9.26369 16.6835C8.53301 16.9611 7.51422 17.1498 6.37524 17.1498C5.23625 17.1498 4.21728 16.9611 3.48641 16.6835C3.12055 16.5446 2.83158 16.3851 2.636 16.2197C2.43852 16.0527 2.35 15.892 2.35 15.75V13.5V13.4H2.25H1.49976H1.39976V13.5V15.75C1.39976 16.4781 1.9998 17.0657 2.89414 17.4659C3.79505 17.8691 5.02869 18.1 6.37524 18.1C7.72142 18.1 8.95489 17.8691 9.85571 17.4659C10.75 17.0657 11.35 16.4781 11.35 15.75V13.5Z" fill="#FF3366" stroke="#FF3366" stroke-width="0.2"/>
<path d="M10.5395 13.4945L10.5626 13.5506L10.6231 13.556C10.9475 13.5851 11.2823 13.6 11.6248 13.6C12.9713 13.6 14.205 13.3692 15.1059 12.966C16.0002 12.5657 16.6003 11.9781 16.6003 11.25V9.00003V8.90003H16.5003H15.7501H15.6501V9.00003V11.25C15.6501 11.392 15.5615 11.5528 15.364 11.7198C15.1685 11.8852 14.8795 12.0446 14.5136 12.1835C13.7828 12.4611 12.7638 12.6498 11.6248 12.6498C11.278 12.6498 10.9424 12.6324 10.6223 12.6004L10.5096 12.5891L10.5123 12.7023C10.5165 12.8717 10.5209 13.0392 10.5253 13.203C10.5276 13.2894 10.5298 13.3748 10.532 13.459L10.5325 13.4774L10.5395 13.4945L10.5395 13.4945Z" fill="#FF3366" stroke="#FF3366" stroke-width="0.2"/>
<path d="M10.5989 15.7459L10.6207 15.8065L10.6849 15.8117C10.9891 15.8365 11.3041 15.85 11.6246 15.85C12.9712 15.85 14.2048 15.6191 15.1057 15.2159C16.0001 14.8157 16.6001 14.2281 16.6001 13.5V11.25V11.15H16.5001H15.7499H15.6499V11.25V13.5C15.6499 13.642 15.5614 13.8027 15.3639 13.9697C15.1683 14.1351 14.8793 14.2946 14.5135 14.4335C13.7826 14.7111 12.7636 14.8998 11.6246 14.8998C11.2994 14.8998 10.984 14.8844 10.682 14.8559L10.5696 14.8453L10.5726 14.9582C10.5778 15.1476 10.5821 15.3097 10.5855 15.4372C10.5891 15.5703 10.5916 15.6657 10.593 15.7149L10.5935 15.7309L10.5989 15.7459L10.5989 15.7459Z" fill="#FF3366" stroke="#FF3366" stroke-width="0.2"/>
</g>
<defs>
<clipPath id="clip0_5530_2742">
<rect width="18" height="18" fill="white"/>
</clipPath>
</defs>
</svg>
